<svg width="17" height="24" viewBox="0 0 17 24" fill="none" xmlns="http://www.w3.org/2000/svg">
<path d="M7.65712 1.08519C8.38764 1.17105 9.10277 1.45569 9.68347 1.89173C10.2642 2.32776 10.6754 2.88889 10.8487 3.48169L10.9002 3.69791L11.3025 5.79479C11.4246 6.43123 11.3166 7.05081 10.9921 7.57649C10.6676 8.10216 10.1407 8.51072 9.47717 8.75136L9.21648 8.83347L7.19819 9.40418C6.83329 9.51013 6.76092 10.3991 7.31427 12.1609C7.81238 13.7463 8.37234 14.6036 8.73891 14.7705L8.80525 14.7942L8.89121 14.8116L12.3173 15.2033C12.7779 15.2557 13.2328 15.4139 13.6278 15.6588C14.0227 15.9038 14.341 16.2252 14.5444 16.5847L14.6364 16.7702L15.9387 19.7318C16.194 20.3122 16.2099 20.9128 15.9839 21.4347C15.7579 21.9566 15.3034 22.3686 14.6954 22.6029L14.4542 22.684L13.4018 22.9904C12.4571 23.2648 11.3869 23.296 10.3184 23.0801C9.24995 22.8642 8.22814 22.4105 7.37449 21.7727C4.71773 19.7878 2.75557 16.7206 1.45575 12.5836C0.154258 8.43668 0.145314 5.22432 1.47436 2.95078C1.87625 2.26358 2.52183 1.71127 3.34253 1.35253C4.16323 0.993781 5.1284 0.841988 6.13555 0.913268L6.4602 0.944297L7.65712 1.08519Z" fill="#699BF7"/>
</svg>
