<svg width="24" height="24" viewBox="0 0 24 24" fill="none" xmlns="http://www.w3.org/2000/svg">
<path d="M15.75 12C15.75 12.7417 15.5301 13.4667 15.118 14.0834C14.706 14.7001 14.1203 15.1807 13.4351 15.4645C12.7498 15.7484 11.9958 15.8226 11.2684 15.6779C10.541 15.5333 9.8728 15.1761 9.34835 14.6516C8.8239 14.1272 8.46675 13.459 8.32205 12.7316C8.17736 12.0042 8.25162 11.2502 8.53545 10.5649C8.81928 9.87971 9.29993 9.29404 9.91661 8.88199C10.5333 8.46993 11.2583 8.25 12 8.25C12.9936 8.25309 13.9456 8.64917 14.6482 9.35176C15.3508 10.0544 15.7469 11.0064 15.75 12ZM23.7188 6.84375V17.1562C23.7188 18.8967 23.0273 20.5659 21.7966 21.7966C20.5659 23.0273 18.8967 23.7188 17.1562 23.7188H6.84375C5.10327 23.7188 3.43407 23.0273 2.20336 21.7966C0.972654 20.5659 0.28125 18.8967 0.28125 17.1562V6.84375C0.28125 5.10327 0.972654 3.43407 2.20336 2.20336C3.43407 0.972654 5.10327 0.28125 6.84375 0.28125H17.1562C18.8967 0.28125 20.5659 0.972654 21.7966 2.20336C23.0273 3.43407 23.7188 5.10327 23.7188 6.84375ZM17.625 12C17.625 10.8875 17.2951 9.79994 16.677 8.87492C16.0589 7.94989 15.1804 7.22892 14.1526 6.80318C13.1248 6.37744 11.9938 6.26604 10.9026 6.48308C9.81147 6.70013 8.80919 7.23585 8.02252 8.02252C7.23585 8.80919 6.70013 9.81147 6.48308 10.9026C6.26604 11.9938 6.37744 13.1248 6.80318 14.1526C7.22892 15.1804 7.94989 16.0589 8.87492 16.677C9.79994 17.2951 10.8875 17.625 12 17.625C13.4918 17.625 14.9226 17.0324 15.9775 15.9775C17.0324 14.9226 17.625 13.4918 17.625 12ZM19.5 5.90625C19.5 5.62812 19.4175 5.35624 19.263 5.12498C19.1085 4.89372 18.8889 4.71348 18.6319 4.60704C18.3749 4.50061 18.0922 4.47276 17.8194 4.52702C17.5466 4.58128 17.296 4.71521 17.0994 4.91188C16.9027 5.10855 16.7688 5.35912 16.7145 5.6319C16.6603 5.90469 16.6881 6.18744 16.7945 6.4444C16.901 6.70136 17.0812 6.92098 17.3125 7.0755C17.5437 7.23003 17.8156 7.3125 18.0938 7.3125C18.4667 7.3125 18.8244 7.16434 19.0881 6.90062C19.3518 6.6369 19.5 6.27921 19.5 5.90625Z" fill="#F24E1E"/>
</svg>
