<svg width="21" height="21" viewBox="0 0 21 21" fill="none" xmlns="http://www.w3.org/2000/svg">
<path d="M20.3334 10.6667C20.3334 9.56366 19.2121 8.66666 17.8334 8.66666H16.5834V5.66666C16.5834 2.90966 13.7796 0.666656 10.3334 0.666656C6.88712 0.666656 4.08337 2.90966 4.08337 5.66666V8.66666H2.83337C1.45462 8.66666 0.333374 9.56366 0.333374 10.6667V18.6667C0.333374 19.7697 1.45462 20.6667 2.83337 20.6667H17.8334C19.2121 20.6667 20.3334 19.7697 20.3334 18.6667V10.6667ZM6.58337 5.66666C6.58337 4.01266 8.26587 2.66666 10.3334 2.66666C12.4009 2.66666 14.0834 4.01266 14.0834 5.66666V8.66666H6.58337V5.66666Z" fill="#699BF7"/>
</svg>
