<svg width="27" height="24" viewBox="0 0 27 24" fill="none" xmlns="http://www.w3.org/2000/svg">
<path d="M25.793 5.10546L22.2539 8.6328C21.5508 16.8242 14.6367 23.1875 6.37501 23.1875C4.67579 23.1875 3.26954 22.918 2.20313 22.3906C1.34766 21.957 0.996101 21.5 0.902351 21.3594C0.824784 21.2415 0.774802 21.1078 0.756128 20.9679C0.737455 20.8281 0.750571 20.6859 0.7945 20.5519C0.838429 20.4178 0.912039 20.2954 1.00984 20.1938C1.10765 20.0921 1.22713 20.0139 1.35938 19.9648C1.38282 19.9531 4.14844 18.8984 5.94141 16.8711C4.82947 16.0794 3.85214 15.1139 3.04688 14.0117C1.44141 11.832 -0.257806 8.04686 0.761726 2.39843C0.793775 2.2305 0.87058 2.07435 0.984028 1.94647C1.09747 1.81858 1.24335 1.72371 1.40626 1.67186C1.56968 1.61835 1.74467 1.61082 1.91209 1.65009C2.0795 1.68936 2.23289 1.77392 2.35548 1.89452C2.39063 1.94139 6.29298 5.78514 11.0625 7.02733V6.31249C11.0671 5.56918 11.2181 4.83406 11.5068 4.1491C11.7955 3.46414 12.2163 2.84275 12.7452 2.32042C13.274 1.79809 13.9006 1.38504 14.5891 1.10486C15.2776 0.824679 16.0145 0.682857 16.7578 0.687488C17.7334 0.701402 18.6887 0.967779 19.5307 1.46067C20.3728 1.95356 21.0727 2.65615 21.5625 3.49999H25.125C25.3101 3.49941 25.4912 3.55363 25.6455 3.65582C25.7999 3.758 25.9205 3.90358 25.9922 4.07421C26.0597 4.24737 26.0769 4.43612 26.0416 4.61862C26.0064 4.80112 25.9202 4.96991 25.793 5.10546Z" fill="#699BF7"/>
</svg>
