<svg width="30" height="30" viewBox="0 0 30 30" fill="none" xmlns="http://www.w3.org/2000/svg">
<g clip-path="url(#clip0_4_8)">
<path d="M0.641445 14.8205C0.640742 17.341 1.30443 19.8022 2.56644 21.9715L0.520752 29.3834L8.16447 27.3945C10.2786 28.5366 12.6474 29.1351 15.0545 29.1352H15.0608C23.0072 29.1352 29.4758 22.7186 29.4792 14.8317C29.4807 11.01 27.9822 7.41627 25.2597 4.71255C22.5377 2.00907 18.9175 0.519414 15.0602 0.51767C7.11292 0.51767 0.644843 6.93395 0.641562 14.8205" fill="url(#paint0_linear_4_8)"/>
<path d="M0.126662 14.8158C0.125841 17.4271 0.813321 19.9763 2.12032 22.2233L0.00128174 29.9008L7.91908 27.8407C10.1007 29.021 12.557 29.6434 15.0564 29.6443H15.0628C23.2943 29.6443 29.9952 22.9969 29.9987 14.8277C30.0001 10.8686 28.4477 7.1457 25.628 4.34512C22.8079 1.54488 19.0582 0.00162791 15.0628 0C6.82991 0 0.13006 6.64651 0.126779 14.8158H0.126662ZM4.84188 21.8363L4.54624 21.3706C3.30346 19.4097 2.6475 17.1436 2.64844 14.8167C2.65113 8.02663 8.21987 2.50233 15.0675 2.50233C18.3836 2.50372 21.5001 3.78651 23.8441 6.11395C26.188 8.44163 27.4778 11.5358 27.4769 14.8267C27.4739 21.6169 21.905 27.1419 15.0628 27.1419H15.0579C12.83 27.1407 10.645 26.547 8.73944 25.425L8.28596 25.1581L3.58738 26.3806L4.84188 21.8362V21.8363Z" fill="url(#paint1_linear_4_8)"/>
<path d="M11.3298 8.62186C11.0502 8.00523 10.7559 7.99279 10.4901 7.98197C10.2723 7.97267 10.0235 7.97337 9.77481 7.97337C9.52593 7.97337 9.12155 8.06628 8.77974 8.43663C8.43759 8.80732 7.47345 9.70314 7.47345 11.5251C7.47345 13.3472 8.8108 15.108 8.99723 15.3553C9.18389 15.6022 11.579 19.4608 15.3723 20.9452C18.5248 22.1788 19.1664 21.9335 19.8505 21.8716C20.5349 21.81 22.0586 20.976 22.3695 20.1113C22.6806 19.2466 22.6806 18.5055 22.5873 18.3506C22.4941 18.1963 22.2452 18.1036 21.872 17.9185C21.4986 17.7333 19.6639 16.8373 19.3218 16.7137C18.9797 16.5902 18.7309 16.5286 18.482 16.8994C18.2331 17.2696 17.5185 18.1036 17.3007 18.3506C17.0831 18.5981 16.8652 18.629 16.4921 18.4437C16.1187 18.2579 14.9168 17.8673 13.4909 16.6058C12.3814 15.6242 11.6324 14.412 11.4147 14.0412C11.197 13.6709 11.3914 13.4702 11.5785 13.2857C11.7462 13.1198 11.9519 12.8533 12.1386 12.6371C12.3247 12.4208 12.3868 12.2665 12.5113 12.0195C12.6358 11.7723 12.5735 11.556 12.4803 11.3708C12.3868 11.1856 11.6616 9.35418 11.3298 8.62198" fill="white"/>
</g>
<defs>
<linearGradient id="paint0_linear_4_8" x1="15" y1="29.3834" x2="15" y2="0.51767" gradientUnits="userSpaceOnUse">
<stop stop-color="#1FAF38"/>
<stop offset="1" stop-color="#60D669"/>
</linearGradient>
<linearGradient id="paint1_linear_4_8" x1="15" y1="29.9008" x2="15" y2="0" gradientUnits="userSpaceOnUse">
<stop stop-color="#F9F9F9"/>
<stop offset="1" stop-color="white"/>
</linearGradient>
<clipPath id="clip0_4_8">
<rect width="30" height="30" fill="white"/>
</clipPath>
</defs>
</svg>
